<svg width="20" height="19" viewBox="0 0 20 19" fill="none" xmlns="http://www.w3.org/2000/svg">
<path fill-rule="evenodd" clip-rule="evenodd" d="M10 1.91663C5.81185 1.91663 2.41667 5.3118 2.41667 9.49996C2.41667 13.6881 5.81185 17.0833 10 17.0833C14.1882 17.0833 17.5833 13.6881 17.5833 9.49996C17.5833 5.3118 14.1882 1.91663 10 1.91663ZM0.916672 9.49996C0.916672 4.48337 4.98342 0.416626 10 0.416626C15.0166 0.416626 19.0833 4.48337 19.0833 9.49996C19.0833 14.5165 15.0166 18.5833 10 18.5833C4.98342 18.5833 0.916672 14.5165 0.916672 9.49996ZM9.25001 6.16663C9.25001 5.75241 9.58579 5.41663 10 5.41663H10.01C10.4242 5.41663 10.76 5.75241 10.76 6.16663C10.76 6.58084 10.4242 6.91663 10.01 6.91663H10C9.58579 6.91663 9.25001 6.58084 9.25001 6.16663ZM10 8.74996C10.4142 8.74996 10.75 9.08575 10.75 9.49996V12.8333C10.75 13.2475 10.4142 13.5833 10 13.5833C9.58579 13.5833 9.25001 13.2475 9.25001 12.8333V9.49996C9.25001 9.08575 9.58579 8.74996 10 8.74996Z" fill="#CBCBCB"/>
</svg>
